<svg xmlns="http://www.w3.org/2000/svg" xmlns:xlink="http://www.w3.org/1999/xlink" width="500" zoomAndPan="magnify" viewBox="0 0 375 374.999991" height="500" preserveAspectRatio="xMidYMid meet" version="1.0"><path fill="#ffffff" d="M 282.222656 211.203125 C 283.558594 209.75 284.429688 207.773438 284.371094 205.390625 C 284.199219 152.90625 282.859375 100.539062 284.082031 48 C 284.199219 41.605469 277.339844 38.585938 272.164062 41.140625 C 252.578125 50.730469 231.480469 57.648438 211.195312 65.667969 C 192.128906 73.28125 173.179688 80.953125 154.347656 89.089844 C 151.675781 86.535156 146.386719 87.464844 146.328125 92.289062 C 145.980469 122.570312 147.605469 152.847656 149.757812 183.011719 C 151.617188 209.109375 153.070312 235.960938 157.140625 262 C 137.375 263.101562 115.171875 267.402344 101.921875 282.109375 C 87.507812 298.035156 94.886719 320.933594 114.242188 328.488281 C 134.296875 336.335938 160.394531 324.1875 172.714844 307.855469 C 178.585938 300.125 181.839844 290.128906 177.890625 280.773438 C 177.074219 278.910156 176.085938 277.167969 174.867188 275.65625 C 175.972656 274.144531 176.609375 272.34375 176.492188 270.542969 C 173.761719 240.84375 168.125 211.261719 164.753906 181.617188 C 163.417969 169.878906 162.195312 158.078125 161.089844 146.339844 C 168.9375 143.667969 176.378906 139.597656 183.933594 136.285156 C 193.40625 132.101562 202.941406 128.207031 212.589844 124.429688 C 221.597656 120.882812 230.664062 117.570312 239.847656 114.488281 C 248.625 111.527344 257.867188 109.433594 266.410156 105.886719 C 265.714844 134.191406 265.421875 162.496094 266.238281 190.683594 C 249.789062 185.453125 231.304688 189.289062 219.390625 203.703125 C 203.753906 222.59375 207.242188 251.421875 231.945312 260.195312 C 254.148438 268.101562 282.453125 253.511719 286.347656 229.566406 C 287.453125 222.1875 285.707031 216.027344 282.222656 211.203125 Z M 117.324219 303.496094 C 117.324219 303.324219 117.382812 303.148438 117.382812 302.972656 C 117.90625 307.042969 119.648438 310.878906 122.613281 313.726562 C 118.953125 312.679688 116.625 309.65625 117.324219 303.496094 Z M 164.984375 297.859375 C 166.03125 295.765625 166.960938 293.617188 167.542969 291.464844 C 167.195312 293.734375 166.265625 295.824219 164.984375 297.859375 Z M 261.585938 89.324219 C 251.824219 90.949219 242 95.425781 232.757812 98.855469 C 223.457031 102.34375 214.214844 106.0625 205.03125 110.015625 C 190.152344 116.40625 173.472656 123.148438 159.695312 132.507812 C 158.535156 120.417969 157.429688 108.269531 156.207031 96.183594 C 176.609375 89.90625 196.777344 83.105469 216.949219 76.246094 C 233.804688 70.492188 250.660156 63.808594 267.75 58.636719 C 267.339844 69.097656 266.992188 79.617188 266.703125 90.078125 C 265.191406 89.324219 263.390625 88.976562 261.585938 89.324219 Z M 266.644531 234.914062 C 265.308594 236.773438 263.503906 238.460938 261.414062 239.914062 C 265.132812 236.136719 267.921875 231.660156 269.027344 227.011719 C 269.375 226.488281 269.667969 225.90625 269.957031 225.382812 C 270.074219 228.347656 269.027344 231.660156 266.644531 234.914062 Z M 266.644531 234.914062 " fill-opacity="1" fill-rule="nonzero"></path></svg>